P2
25 7
255
32
32
29
33
31
27
28
26
23
19
16
12
16
14
16
15
17
16
16
16
16
15
14
13
14
32
26
25
21
17
18
23
22
17
17
16
14
17
15
16
13
14
15
16
13
7
8
12
13
9
33
27
27
21
13
9
12
15
15
12
12
10
13
10
10
7
9
12
9
7
7
7
5
5
6
32
33
29
20
13
12
15
16
15
11
11
9
12
9
10
9
11
15
11
10
11
10
7
8
11
28
29
24
18
15
16
18
16
13
14
14
10
12
10
13
12
13
11
12
12
9
7
8
11
14
25
23
23
23
23
21
18
16
15
17
14
8
8
7
11
9
9
7
9
10
8
6
6
9
12
26
26
25
26
30
30
26
21
19
14
11
4
5
5
10
7
5
7
7
9
12
11
7
7
10
