P2
12 3
255
1
0
198
255
255
255
255
255
255
160
0
0
1
0
198
255
255
255
255
255
255
160
0
0
1
0
198
255
255
255
255
255
255
160
0
0
